{"title":"Katy Perry - E.T. ft. Kanye West - 1080p [apels1nen]","uid":6285546,"size":115945622,"categoryP":"video","categoryS":"music_videos","magnet":"?xt=urn:btih:2747450cd130b0df515a010ad80a401ca044fe85&amp;dn=Katy+Perry+-+E.T.+ft.+Kanye+West+-+1080p+%5Bapels1nen%5D&amp;tr=udp%3A%2F%2Ftracker.openbittorrent.com%3A80&amp;tr=udp%3A%2F%2Fopen.demonii.com%3A1337&amp;tr=udp%3A%2F%2Ftracker.coppersurfer.tk%3A6969&amp;tr=udp%3A%2F%2Fexodus.desync.com%3A6969","seeders":2,"leechers":1,"uploader":"apels1nen","files":-1,"time":1301601509,"description":"General\nComplete name                    : Katy Perry - E.T. ft. Kanye West [apels1nen].mp4\nFormat                           : MPEG-4\nFormat profile                   : Base Media / Version 2\nCodec ID                         : mp42\nFile size                        : 111 MiB\nDuration                         : 5mn 8s\nOverall bit rate                 : 3 007 Kbps\n\nVideo\nID                               : 1\nFormat                           : AVC\nFormat/Info                      : Advanced Video Codec\nFormat profile                   : &lt;a class=&quot;__cf_email__&quot; href=&quot;/cdn-cgi/l/email-protection&quot; data-cfemail=&quot;2f674648476f631b011f&quot;&gt;[email&amp;#160;protected]&lt;/a&gt;&lt;script cf-hash='f9e31' type=&quot;text/javascript&quot;&gt;\n/* &lt;![CDATA[ */!function(){try{var t=&quot;currentScript&quot;in document?document.currentScript:function(){for(var t=document.getElementsByTagName(&quot;script&quot;),e=t.length;e--;)if(t[e].getAttribute(&quot;cf-hash&quot;))return t[e]}();if(t&amp;&amp;t.previousSibling){var e,r,n,i,c=t.previousSibling,a=c.getAttribute(&quot;data-cfemail&quot;);if(a){for(e=&quot;&quot;,r=parseInt(a.substr(0,2),16),n=2;a.length-n;n+=2)i=parseInt(a.substr(n,2),16)^r,e+=String.fromCharCode(i);e=document.createTextNode(e),c.parentNode.replaceChild(e,c)}}}catch(u){}}();/* ]]&gt; */&lt;/script&gt;\nFormat settings, CABAC           : Yes\nFormat settings, ReFrames        : 1 frame\nFormat settings, GOP             : M=1, N=48\nCodec ID                         : avc1\nCodec ID/Info                    : Advanced Video Coding\nDuration                         : 5mn 8s\nBit rate mode                    : Variable\nBit rate                         : 2 876 Kbps\nMaximum bit rate                 : 15.3 Mbps\nWidth                            : 1 920 pixels\nHeight                           : 1 080 pixels\nDisplay aspect ratio             : 16:9\nFrame rate mode                  : Variable\nFrame rate                       : 23.976 fps\nMinimum frame rate               : 17.241 fps\nMaximum frame rate               : 24.390 fps\nColor space                      : YUV\nChroma subsampling               : 4:2:0\nBit depth                        : 8 bits\nScan type                        : Progressive\nBits/(Pixel*Frame)               : 0.058\nStream size                      : 106 MiB (96%)\n\n\nAudio\nID                               : 2\nFormat                           : AAC\nFormat/Info                      : Advanced Audio Codec\nFormat profile                   : LC\nCodec ID                         : 40\nDuration                         : 5mn 8s\nBit rate mode                    : Variable\nBit rate                         : 125 Kbps\nMaximum bit rate                 : 156 Kbps\nChannel(s)                       : 2 channels\nChannel positions                : Front: L R\nSampling rate                    : 44.1 KHz\nStream size                      : 4.60 MiB (4%)\n\nScreenshots:  &lt;a href=&quot;\nhttp://imgden.com/11741/thumbs20110331195333.jpg&quot; rel=&quot;nofollow&quot; target=&quot;_NEW&quot;&gt;\nhttp://imgden.com/11741/thumbs20110331195333.jpg&lt;/a&gt;","torrent":{"xt":"urn:btih:2747450cd130b0df515a010ad80a401ca044fe85","amp;dn":"Katy+Perry+-+E.T.+ft.+Kanye+West+-+1080p+%5Bapels1nen%5D","amp;tr":["udp%3A%2F%2Ftracker.openbittorrent.com%3A80","udp%3A%2F%2Fopen.demonii.com%3A1337","udp%3A%2F%2Ftracker.coppersurfer.tk%3A6969","udp%3A%2F%2Fexodus.desync.com%3A6969"],"infoHash":"2747450cd130b0df515a010ad80a401ca044fe85","infoHashBuffer":{"type":"Buffer","data":[39,71,69,12,209,48,176,223,81,90,1,10,216,10,64,28,160,68,254,133]},"announce":[],"urlList":[]}}